#!OML:ASF F:\VICON\USERDATA\INSTALL\rory3\rory3.ASF
:FULLY-SPECIFIED
:DEGREES
207
root 1.15231 17.943 7.25189 -3.08536 1.669 2.79825
lowerback 8.03962 -0.704246 -4.92082
upperback 0.981547 -1.31639 1.41815
thorax -3.34589 -0.583696 4.38786
lowerneck -16.5881 -2.86192 -1.17784
upperneck 18.7982 -3.73331 0.37608
head 8.63216 -1.8035 -0.134451
rclavicle 8.52289e-015 -2.14687e-014
rhumerus -33.8438 -12.5461 -79.7849
rradius 30.2257
rwrist 1.98751
rhand -13.6392 16.5781
rfingers 7.12502
rthumb 12.477 -13.0295
lclavicle 8.52289e-015 -2.14687e-014
lhumerus -31.0658 -6.85058 80.8373
lradius 37.7357
lwrist 5.93887
lhand -23.1347 35.0916
lfingers 7.12502
lthumb 3.31302 65.0456
rfemur -29.2402 1.91859 17.9835
rtibia 29.0245
rfoot -9.80665 -11.4961
rtoes -13.703
lfemur 4.45082 -2.87552 -27.8836
ltibia 22.0933
lfoot -20.0788 -1.27186
ltoes -10.1754
208
root 1.15255 17.9253 7.43195 -2.97775 1.95249 3.1359
lowerback 7.81364 -0.854348 -5.1817
upperback 1.01622 -1.53016 1.32069
thorax -3.15546 -0.693927 4.44828
lowerneck -16.679 -2.85973 -1.18564
upperneck 18.7604 -3.73467 0.412965
head 8.63658 -1.80047 -0.12198
rclavicle 1.25483e-014 1.74931e-014
rhumerus -33.8902 -12.6415 -79.8186
rradius 30.4138
rwrist 2.24305
rhand -13.4876 15.9288
rfingers 7.12502
rthumb 12.6231 -13.6698
lclavicle 1.25483e-014 1.74931e-014
lhumerus -30.7505 -7.00525 80.6642
lradius 37.9437
lwrist 5.96326
lhand -21.8128 34.6102
lfingers 7.12502
lthumb 4.58953 64.5405
rfemur -28.6863 2.66311 17.1588
rtibia 25.7165
rfoot -11.0038 -12.0953
rtoes -10.3053
lfemur 5.46989 -3.093 -28.3611
ltibia 21.3945
lfoot -20.2927 -0.929421
ltoes -11.6963
209
root 1.14571 17.9095 7.6049 -2.77073 2.02925 3.30606
lowerback 7.51333 -0.934569 -5.35473
upperback 0.950313 -1.63799 1.28539
thorax -3.04009 -0.747975 4.5121
lowerneck -16.4608 -2.86441 -1.16033
upperneck 18.6574 -3.74969 0.414644
head 8.56201 -1.80723 -0.123067
rclavicle -1.2101e-014 5.96354e-015
rhumerus -34.009 -12.7706 -79.7484
rradius 30.2599
rwrist 2.33245
rhand -13.8577 16.0538
rfingers 7.12502
rthumb 12.2663 -13.5664
lclavicle -1.2101e-014 5.96354e-015
lhumerus -30.5575 -7.12095 80.5172
lradius 37.8422
lwrist 5.96106
lhand -21.1483 32.8606
lfingers 7.12502
lthumb 5.23118 62.776
rfemur -28.3082 4.0686 16.3314
rtibia 22.4532
rfoot -10.4603 -12.789
rtoes -11.8066
lfemur 6.25302 -3.00525 -28.5403
ltibia 20.7989
lfoot -20.483 -0.827206
ltoes -12.7074
210
root 1.13219 17.8928 7.7696 -2.52581 1.99161 3.1953
lowerback 7.25451 -0.98696 -5.31337
upperback 0.835194 -1.69013 1.36819
thorax -3.00776 -0.772557 4.57453
lowerneck -16.2269 -2.83459 -1.23969
upperneck 18.5859 -3.69581 0.439725
head 8.49757 -1.78643 -0.0908805
rclavicle 1.49337e-014 -7.95139e-015
rhumerus -34.1716 -12.8608 -79.5792
rradius 30.2279
rwrist 2.4347
rhand -13.5358 16.3239
rfingers 7.12502
rthumb 12.5767 -13.2775
lclavicle 1.49337e-014 -7.95139e-015
lhumerus -30.6924 -7.09768 80.4366
lradius 38.1862
lwrist 5.79763
lhand -21.1784 32.4914
lfingers 7.12502
lthumb 5.20207 62.4075
rfemur -28.1143 5.88491 15.7302
rtibia 19.4647
rfoot -10.3248 -13.9812
rtoes -14.04
lfemur 6.82233 -2.92108 -28.3408
ltibia 20.1941
lfoot -20.4446 -1.09033
ltoes -11.005
211
root 1.11942 17.8812 7.93282 -2.34932 2.03133 3.08503
lowerback 7.03671 -1.00814 -5.21748
upperback 0.790609 -1.69828 1.42743
thorax -2.9323 -0.778921 4.57711
lowerneck -16.1381 -2.86487 -1.37622
upperneck 18.5564 -3.72639 0.545187
head 8.47699 -1.79997 -0.0352294
rclavicle 8.57259e-015 -1.27222e-014
rhumerus -34.4141 -13.0433 -79.4684
rradius 30.4004
rwrist 2.53065
rhand -13.3244 16.5306
rfingers 7.12502
rthumb 12.7804 -13.0582
lclavicle 8.57259e-015 -1.27222e-014
lhumerus -30.4821 -7.22328 80.4265
lradius 38.3833
lwrist 5.579
lhand -21.293 34.1946
lfingers 7.12502
lthumb 5.09149 64.1135
rfemur -27.827 7.74964 15.0215
rtibia 16.7129
rfoot -10.6927 -15.2664
rtoes -14.6469
lfemur 7.39371 -2.84433 -28.1534
ltibia 19.6507
lfoot -20.4158 -1.42538
ltoes -8.31524
212
root 1.10811 17.8593 8.09941 -2.24038 2.14516 3.04404
lowerback 7.0133 -1.06309 -5.23696
upperback 0.777315 -1.77039 1.47774
thorax -2.92239 -0.814435 4.64662
lowerneck -16.2416 -2.83982 -1.36202
upperneck 18.4747 -3.70436 0.599838
head 8.4685 -1.78255 -0.0174344
rclavicle 9.44227e-016 7.15625e-015
rhumerus -34.5403 -13.13 -79.4475
rradius 30.5436
rwrist 2.59024
rhand -13.39 16.6014
rfingers 7.12502
rthumb 12.7173 -12.9914
lclavicle 9.44227e-016 7.15625e-015
lhumerus -30.0553 -7.42271 80.4204
lradius 38.2584
lwrist 5.73559
lhand -21.949 34.4951
lfingers 7.12502
lthumb 4.45799 64.4282
rfemur -27.4404 9.22827 14.3358
rtibia 14.1868
rfoot -11.5955 -16.2925
rtoes -13.4496
lfemur 7.99786 -2.63198 -28.0352
ltibia 19.1954
lfoot -20.2053 -1.57292
ltoes -8.08153
213
root 1.09846 17.8318 8.27969 -2.08774 2.29061 3.18336
lowerback 6.85599 -1.14584 -5.43412
upperback 0.799722 -1.88697 1.47393
thorax -2.79105 -0.875181 4.75862
lowerneck -16.7437 -2.83137 -1.35689
upperneck 18.673 -3.70598 0.674578
head 8.62728 -1.7713 -0.0025282
rclavicle 2.90723e-015 -7.15625e-015
rhumerus -34.4699 -13.2361 -79.4307
rradius 30.5407
rwrist 2.62993
rhand -13.3414 16.6717
rfingers 7.12502
rthumb 12.7641 -12.9181
lclavicle 2.90723e-015 -7.15625e-015
lhumerus -29.7326 -7.49784 80.3457
lradius 38.2299
lwrist 5.9425
lhand -22.1964 34.2853
lfingers 7.12502
lthumb 4.21915 64.2233
rfemur -27.0866 10.3376 13.5539
rtibia 11.9795
rfoot -12.9708 -17.2257
rtoes -12.5103
lfemur 8.64698 -2.50343 -28.1617
ltibia 18.7441
lfoot -20.023 -1.35191
ltoes -10.0224
